<mxfile host="app.diagrams.net" modified="2020-11-29T14:55:36.752Z" agent="5.0 (Windows NT 10.0; Win64; x64) AppleWebKit/537.36 (KHTML, like Gecko) Chrome/87.0.4280.66 Safari/537.36" etag="GV2e_MDEI22tHrm1F3on" version="13.10.1" type="github">
  <diagram id="C5RBs43oDa-KdzZeNtuy" name="Page-1">
    <mxGraphModel dx="868" dy="482" grid="1" gridSize="10" guides="1" tooltips="1" connect="1" arrows="1" fold="1" page="1" pageScale="1" pageWidth="827" pageHeight="1169" math="0" shadow="0">
      <root>
        <mxCell id="WIyWlLk6GJQsqaUBKTNV-0" />
        <mxCell id="WIyWlLk6GJQsqaUBKTNV-1" parent="WIyWlLk6GJQsqaUBKTNV-0" />
        <mxCell id="zkfFHV4jXpPFQw0GAbJ--0" value="Person" style="swimlane;fontStyle=2;align=center;verticalAlign=top;childLayout=stackLayout;horizontal=1;startSize=26;horizontalStack=0;resizeParent=1;resizeLast=0;collapsible=1;marginBottom=0;rounded=0;shadow=0;strokeWidth=1;" parent="WIyWlLk6GJQsqaUBKTNV-1" vertex="1">
          <mxGeometry x="40" y="40" width="290" height="330" as="geometry">
            <mxRectangle x="230" y="140" width="160" height="26" as="alternateBounds" />
          </mxGeometry>
        </mxCell>
        <mxCell id="zkfFHV4jXpPFQw0GAbJ--1" value="- name : String" style="text;align=left;verticalAlign=top;spacingLeft=4;spacingRight=4;overflow=hidden;rotatable=0;points=[[0,0.5],[1,0.5]];portConstraint=eastwest;" parent="zkfFHV4jXpPFQw0GAbJ--0" vertex="1">
          <mxGeometry y="26" width="290" height="26" as="geometry" />
        </mxCell>
        <mxCell id="gB-Jj1gsL8ap6tx8Xafn-13" value="- address: String" style="text;align=left;verticalAlign=top;spacingLeft=4;spacingRight=4;overflow=hidden;rotatable=0;points=[[0,0.5],[1,0.5]];portConstraint=eastwest;" vertex="1" parent="zkfFHV4jXpPFQw0GAbJ--0">
          <mxGeometry y="52" width="290" height="26" as="geometry" />
        </mxCell>
        <mxCell id="zkfFHV4jXpPFQw0GAbJ--2" value="- noPhone : int" style="text;align=left;verticalAlign=top;spacingLeft=4;spacingRight=4;overflow=hidden;rotatable=0;points=[[0,0.5],[1,0.5]];portConstraint=eastwest;rounded=0;shadow=0;html=0;" parent="zkfFHV4jXpPFQw0GAbJ--0" vertex="1">
          <mxGeometry y="78" width="290" height="26" as="geometry" />
        </mxCell>
        <mxCell id="zkfFHV4jXpPFQw0GAbJ--4" value="" style="line;html=1;strokeWidth=1;align=left;verticalAlign=middle;spacingTop=-1;spacingLeft=3;spacingRight=3;rotatable=0;labelPosition=right;points=[];portConstraint=eastwest;" parent="zkfFHV4jXpPFQw0GAbJ--0" vertex="1">
          <mxGeometry y="104" width="290" height="8" as="geometry" />
        </mxCell>
        <mxCell id="gB-Jj1gsL8ap6tx8Xafn-14" value="+ Person()" style="text;align=left;verticalAlign=top;spacingLeft=4;spacingRight=4;overflow=hidden;rotatable=0;points=[[0,0.5],[1,0.5]];portConstraint=eastwest;" vertex="1" parent="zkfFHV4jXpPFQw0GAbJ--0">
          <mxGeometry y="112" width="290" height="28" as="geometry" />
        </mxCell>
        <mxCell id="gB-Jj1gsL8ap6tx8Xafn-25" value="+ Person(name:String, address:String, noPhone:int)" style="text;align=left;verticalAlign=top;spacingLeft=4;spacingRight=4;overflow=hidden;rotatable=0;points=[[0,0.5],[1,0.5]];portConstraint=eastwest;" vertex="1" parent="zkfFHV4jXpPFQw0GAbJ--0">
          <mxGeometry y="140" width="290" height="28" as="geometry" />
        </mxCell>
        <mxCell id="gB-Jj1gsL8ap6tx8Xafn-26" value="+ setName(name:String) : void" style="text;align=left;verticalAlign=top;spacingLeft=4;spacingRight=4;overflow=hidden;rotatable=0;points=[[0,0.5],[1,0.5]];portConstraint=eastwest;" vertex="1" parent="zkfFHV4jXpPFQw0GAbJ--0">
          <mxGeometry y="168" width="290" height="28" as="geometry" />
        </mxCell>
        <mxCell id="gB-Jj1gsL8ap6tx8Xafn-15" value="+ getName() : String" style="text;align=left;verticalAlign=top;spacingLeft=4;spacingRight=4;overflow=hidden;rotatable=0;points=[[0,0.5],[1,0.5]];portConstraint=eastwest;" vertex="1" parent="zkfFHV4jXpPFQw0GAbJ--0">
          <mxGeometry y="196" width="290" height="26" as="geometry" />
        </mxCell>
        <mxCell id="gB-Jj1gsL8ap6tx8Xafn-21" value="+ setAddress(address:String) : void" style="text;align=left;verticalAlign=top;spacingLeft=4;spacingRight=4;overflow=hidden;rotatable=0;points=[[0,0.5],[1,0.5]];portConstraint=eastwest;" vertex="1" parent="zkfFHV4jXpPFQw0GAbJ--0">
          <mxGeometry y="222" width="290" height="28" as="geometry" />
        </mxCell>
        <mxCell id="gB-Jj1gsL8ap6tx8Xafn-22" value="+ getAddress() : String" style="text;align=left;verticalAlign=top;spacingLeft=4;spacingRight=4;overflow=hidden;rotatable=0;points=[[0,0.5],[1,0.5]];portConstraint=eastwest;" vertex="1" parent="zkfFHV4jXpPFQw0GAbJ--0">
          <mxGeometry y="250" width="290" height="26" as="geometry" />
        </mxCell>
        <mxCell id="gB-Jj1gsL8ap6tx8Xafn-23" value="+ setNoPhone(noPhone:int) : void" style="text;align=left;verticalAlign=top;spacingLeft=4;spacingRight=4;overflow=hidden;rotatable=0;points=[[0,0.5],[1,0.5]];portConstraint=eastwest;" vertex="1" parent="zkfFHV4jXpPFQw0GAbJ--0">
          <mxGeometry y="276" width="290" height="28" as="geometry" />
        </mxCell>
        <mxCell id="gB-Jj1gsL8ap6tx8Xafn-24" value="+ getNoPhone() : int" style="text;align=left;verticalAlign=top;spacingLeft=4;spacingRight=4;overflow=hidden;rotatable=0;points=[[0,0.5],[1,0.5]];portConstraint=eastwest;" vertex="1" parent="zkfFHV4jXpPFQw0GAbJ--0">
          <mxGeometry y="304" width="290" height="26" as="geometry" />
        </mxCell>
        <mxCell id="gB-Jj1gsL8ap6tx8Xafn-27" value="Customer" style="swimlane;fontStyle=2;align=center;verticalAlign=top;childLayout=stackLayout;horizontal=1;startSize=26;horizontalStack=0;resizeParent=1;resizeLast=0;collapsible=1;marginBottom=0;rounded=0;shadow=0;strokeWidth=1;" vertex="1" parent="WIyWlLk6GJQsqaUBKTNV-1">
          <mxGeometry x="420" y="40" width="380" height="224" as="geometry">
            <mxRectangle x="230" y="140" width="160" height="26" as="alternateBounds" />
          </mxGeometry>
        </mxCell>
        <mxCell id="gB-Jj1gsL8ap6tx8Xafn-28" value="+ custNo: String" style="text;align=left;verticalAlign=top;spacingLeft=4;spacingRight=4;overflow=hidden;rotatable=0;points=[[0,0.5],[1,0.5]];portConstraint=eastwest;" vertex="1" parent="gB-Jj1gsL8ap6tx8Xafn-27">
          <mxGeometry y="26" width="380" height="26" as="geometry" />
        </mxCell>
        <mxCell id="gB-Jj1gsL8ap6tx8Xafn-31" value="" style="line;html=1;strokeWidth=1;align=left;verticalAlign=middle;spacingTop=-1;spacingLeft=3;spacingRight=3;rotatable=0;labelPosition=right;points=[];portConstraint=eastwest;" vertex="1" parent="gB-Jj1gsL8ap6tx8Xafn-27">
          <mxGeometry y="52" width="380" height="8" as="geometry" />
        </mxCell>
        <mxCell id="gB-Jj1gsL8ap6tx8Xafn-32" value="+ Customer()" style="text;align=left;verticalAlign=top;spacingLeft=4;spacingRight=4;overflow=hidden;rotatable=0;points=[[0,0.5],[1,0.5]];portConstraint=eastwest;" vertex="1" parent="gB-Jj1gsL8ap6tx8Xafn-27">
          <mxGeometry y="60" width="380" height="28" as="geometry" />
        </mxCell>
        <mxCell id="gB-Jj1gsL8ap6tx8Xafn-33" value="+ Customer(name:String, address:String, noPhone:int, custNo:String)" style="text;align=left;verticalAlign=top;spacingLeft=4;spacingRight=4;overflow=hidden;rotatable=0;points=[[0,0.5],[1,0.5]];portConstraint=eastwest;" vertex="1" parent="gB-Jj1gsL8ap6tx8Xafn-27">
          <mxGeometry y="88" width="380" height="28" as="geometry" />
        </mxCell>
        <mxCell id="gB-Jj1gsL8ap6tx8Xafn-34" value="+ setCustNo(custNo:String) : void" style="text;align=left;verticalAlign=top;spacingLeft=4;spacingRight=4;overflow=hidden;rotatable=0;points=[[0,0.5],[1,0.5]];portConstraint=eastwest;" vertex="1" parent="gB-Jj1gsL8ap6tx8Xafn-27">
          <mxGeometry y="116" width="380" height="28" as="geometry" />
        </mxCell>
        <mxCell id="gB-Jj1gsL8ap6tx8Xafn-35" value="+ getCustNo() : String" style="text;align=left;verticalAlign=top;spacingLeft=4;spacingRight=4;overflow=hidden;rotatable=0;points=[[0,0.5],[1,0.5]];portConstraint=eastwest;" vertex="1" parent="gB-Jj1gsL8ap6tx8Xafn-27">
          <mxGeometry y="144" width="380" height="26" as="geometry" />
        </mxCell>
        <mxCell id="gB-Jj1gsL8ap6tx8Xafn-51" value="+ setEmail(email:boolean) : void" style="text;align=left;verticalAlign=top;spacingLeft=4;spacingRight=4;overflow=hidden;rotatable=0;points=[[0,0.5],[1,0.5]];portConstraint=eastwest;" vertex="1" parent="gB-Jj1gsL8ap6tx8Xafn-27">
          <mxGeometry y="170" width="380" height="28" as="geometry" />
        </mxCell>
        <mxCell id="gB-Jj1gsL8ap6tx8Xafn-52" value="+ getEmail() : boolean" style="text;align=left;verticalAlign=top;spacingLeft=4;spacingRight=4;overflow=hidden;rotatable=0;points=[[0,0.5],[1,0.5]];portConstraint=eastwest;" vertex="1" parent="gB-Jj1gsL8ap6tx8Xafn-27">
          <mxGeometry y="198" width="380" height="26" as="geometry" />
        </mxCell>
        <mxCell id="gB-Jj1gsL8ap6tx8Xafn-40" value="PrefferedCustomer" style="swimlane;fontStyle=2;align=center;verticalAlign=top;childLayout=stackLayout;horizontal=1;startSize=26;horizontalStack=0;resizeParent=1;resizeLast=0;collapsible=1;marginBottom=0;rounded=0;shadow=0;strokeWidth=1;" vertex="1" parent="WIyWlLk6GJQsqaUBKTNV-1">
          <mxGeometry x="420" y="363" width="380" height="222" as="geometry">
            <mxRectangle x="230" y="140" width="160" height="26" as="alternateBounds" />
          </mxGeometry>
        </mxCell>
        <mxCell id="gB-Jj1gsL8ap6tx8Xafn-41" value="+ custPurchase: int" style="text;align=left;verticalAlign=top;spacingLeft=4;spacingRight=4;overflow=hidden;rotatable=0;points=[[0,0.5],[1,0.5]];portConstraint=eastwest;" vertex="1" parent="gB-Jj1gsL8ap6tx8Xafn-40">
          <mxGeometry y="26" width="380" height="26" as="geometry" />
        </mxCell>
        <mxCell id="gB-Jj1gsL8ap6tx8Xafn-47" value="+ discount: int" style="text;align=left;verticalAlign=top;spacingLeft=4;spacingRight=4;overflow=hidden;rotatable=0;points=[[0,0.5],[1,0.5]];portConstraint=eastwest;" vertex="1" parent="gB-Jj1gsL8ap6tx8Xafn-40">
          <mxGeometry y="52" width="380" height="26" as="geometry" />
        </mxCell>
        <mxCell id="gB-Jj1gsL8ap6tx8Xafn-42" value="" style="line;html=1;strokeWidth=1;align=left;verticalAlign=middle;spacingTop=-1;spacingLeft=3;spacingRight=3;rotatable=0;labelPosition=right;points=[];portConstraint=eastwest;" vertex="1" parent="gB-Jj1gsL8ap6tx8Xafn-40">
          <mxGeometry y="78" width="380" height="8" as="geometry" />
        </mxCell>
        <mxCell id="gB-Jj1gsL8ap6tx8Xafn-43" value="+ PrefferedCustomer()" style="text;align=left;verticalAlign=top;spacingLeft=4;spacingRight=4;overflow=hidden;rotatable=0;points=[[0,0.5],[1,0.5]];portConstraint=eastwest;" vertex="1" parent="gB-Jj1gsL8ap6tx8Xafn-40">
          <mxGeometry y="86" width="380" height="28" as="geometry" />
        </mxCell>
        <mxCell id="gB-Jj1gsL8ap6tx8Xafn-44" value="+ PrefferedCustomer(custPurchase:int, discount:int)" style="text;align=left;verticalAlign=top;spacingLeft=4;spacingRight=4;overflow=hidden;rotatable=0;points=[[0,0.5],[1,0.5]];portConstraint=eastwest;" vertex="1" parent="gB-Jj1gsL8ap6tx8Xafn-40">
          <mxGeometry y="114" width="380" height="28" as="geometry" />
        </mxCell>
        <mxCell id="gB-Jj1gsL8ap6tx8Xafn-45" value="+ setPurchase(custPurchase:int) : void" style="text;align=left;verticalAlign=top;spacingLeft=4;spacingRight=4;overflow=hidden;rotatable=0;points=[[0,0.5],[1,0.5]];portConstraint=eastwest;" vertex="1" parent="gB-Jj1gsL8ap6tx8Xafn-40">
          <mxGeometry y="142" width="380" height="28" as="geometry" />
        </mxCell>
        <mxCell id="gB-Jj1gsL8ap6tx8Xafn-46" value="+ getPurchase() : String" style="text;align=left;verticalAlign=top;spacingLeft=4;spacingRight=4;overflow=hidden;rotatable=0;points=[[0,0.5],[1,0.5]];portConstraint=eastwest;" vertex="1" parent="gB-Jj1gsL8ap6tx8Xafn-40">
          <mxGeometry y="170" width="380" height="26" as="geometry" />
        </mxCell>
        <mxCell id="gB-Jj1gsL8ap6tx8Xafn-48" value="+ getDiscount() : String" style="text;align=left;verticalAlign=top;spacingLeft=4;spacingRight=4;overflow=hidden;rotatable=0;points=[[0,0.5],[1,0.5]];portConstraint=eastwest;" vertex="1" parent="gB-Jj1gsL8ap6tx8Xafn-40">
          <mxGeometry y="196" width="380" height="26" as="geometry" />
        </mxCell>
        <mxCell id="gB-Jj1gsL8ap6tx8Xafn-49" value="Extends" style="endArrow=block;endSize=16;endFill=0;html=1;entryX=0.5;entryY=1;entryDx=0;entryDy=0;" edge="1" parent="WIyWlLk6GJQsqaUBKTNV-1" source="gB-Jj1gsL8ap6tx8Xafn-40" target="gB-Jj1gsL8ap6tx8Xafn-27">
          <mxGeometry width="160" relative="1" as="geometry">
            <mxPoint x="150" y="460" as="sourcePoint" />
            <mxPoint x="310" y="460" as="targetPoint" />
          </mxGeometry>
        </mxCell>
        <mxCell id="gB-Jj1gsL8ap6tx8Xafn-50" value="Extends" style="endArrow=block;endSize=16;endFill=0;html=1;exitX=0.003;exitY=0.143;exitDx=0;exitDy=0;exitPerimeter=0;" edge="1" parent="WIyWlLk6GJQsqaUBKTNV-1" source="gB-Jj1gsL8ap6tx8Xafn-33">
          <mxGeometry width="160" relative="1" as="geometry">
            <mxPoint x="420" y="131" as="sourcePoint" />
            <mxPoint x="330" y="131" as="targetPoint" />
          </mxGeometry>
        </mxCell>
      </root>
    </mxGraphModel>
  </diagram>
</mxfile>
